<svg id="visual" viewBox="0 0 960 540" width="960" height="540" xmlns="http://www.w3.org/2000/svg" xmlns:xlink="http://www.w3.org/1999/xlink" version="1.1"><rect x="0" y="0" width="960" height="540" fill="#4D4646"></rect><g transform="translate(947.7315418135634 -25.21264058664383)"><path d="M156.3 -249C201.9 -244.3 237.8 -201.2 245.6 -153.3C253.4 -105.3 233.2 -52.7 225.6 -4.4C217.9 43.8 222.8 87.7 212.6 131.4C202.3 175.1 176.9 218.8 139 253.1C101 287.4 50.5 312.5 11.2 293.1C-28.1 273.7 -56.3 209.9 -89.5 172.9C-122.6 135.8 -160.9 125.4 -187.5 101C-214.1 76.7 -229.1 38.3 -220.3 5.1C-211.5 -28.2 -178.9 -56.3 -152.9 -81.7C-126.9 -107.1 -107.5 -129.8 -83.1 -146.7C-58.7 -163.6 -29.3 -174.8 13 -197.3C55.3 -219.8 110.7 -253.7 156.3 -249" fill="#F5EAEA"></path></g></svg>